<svg width="40" height="40" viewBox="0 0 40 40" fill="none" xmlns="http://www.w3.org/2000/svg">
<path fill-rule="evenodd" clip-rule="evenodd" d="M15 31.25C15 31.5815 15.1317 31.8995 15.3661 32.1339C15.6005 32.3683 15.9185 32.5 16.25 32.5H36.25C36.5815 32.5 36.8995 32.3683 37.1339 32.1339C37.3683 31.8995 37.5 31.5815 37.5 31.25V8.75C37.5 8.41848 37.3683 8.10054 37.1339 7.86612C36.8995 7.6317 36.5815 7.5 36.25 7.5H16.25C15.9185 7.5 15.6005 7.6317 15.3661 7.86612C15.1317 8.10054 15 8.41848 15 8.75V13.75C15 14.0815 14.8683 14.3995 14.6339 14.6339C14.3995 14.8683 14.0815 15 13.75 15C13.4185 15 13.1005 14.8683 12.8661 14.6339C12.6317 14.3995 12.5 14.0815 12.5 13.75V8.75C12.5 7.75544 12.8951 6.80161 13.5983 6.09835C14.3016 5.39509 15.2554 5 16.25 5H36.25C37.2446 5 38.1984 5.39509 38.9017 6.09835C39.6049 6.80161 40 7.75544 40 8.75V31.25C40 32.2446 39.6049 33.1984 38.9017 33.9017C38.1984 34.6049 37.2446 35 36.25 35H16.25C15.2554 35 14.3016 34.6049 13.5983 33.9017C12.8951 33.1984 12.5 32.2446 12.5 31.25V26.25C12.5 25.9185 12.6317 25.6005 12.8661 25.3661C13.1005 25.1317 13.4185 25 13.75 25C14.0815 25 14.3995 25.1317 14.6339 25.3661C14.8683 25.6005 15 25.9185 15 26.25V31.25Z" fill="#FFC391"/>
<path fill-rule="evenodd" clip-rule="evenodd" d="M29.635 19.115C29.7514 19.2311 29.8438 19.3691 29.9068 19.5209C29.9698 19.6728 30.0022 19.8356 30.0022 20C30.0022 20.1644 29.9698 20.3272 29.9068 20.4791C29.8438 20.631 29.7514 20.7689 29.635 20.885L22.135 28.385C22.0188 28.5012 21.8808 28.5934 21.729 28.6563C21.5771 28.7192 21.4144 28.7516 21.25 28.7516C21.0856 28.7516 20.9229 28.7192 20.771 28.6563C20.6192 28.5934 20.4812 28.5012 20.365 28.385C20.2488 28.2688 20.1566 28.1308 20.0937 27.979C20.0308 27.8271 19.9984 27.6644 19.9984 27.5C19.9984 27.3356 20.0308 27.1729 20.0937 27.021C20.1566 26.8692 20.2488 26.7312 20.365 26.615L25.7325 21.25H3.75C3.41848 21.25 3.10054 21.1183 2.86612 20.8839C2.6317 20.6495 2.5 20.3315 2.5 20C2.5 19.6685 2.6317 19.3505 2.86612 19.1161C3.10054 18.8817 3.41848 18.75 3.75 18.75H25.7325L20.365 13.385C20.2488 13.2688 20.1566 13.1308 20.0937 12.979C20.0308 12.8271 19.9984 12.6644 19.9984 12.5C19.9984 12.3356 20.0308 12.1729 20.0937 12.021C20.1566 11.8692 20.2488 11.7312 20.365 11.615C20.4812 11.4988 20.6192 11.4066 20.771 11.3437C20.9229 11.2808 21.0856 11.2484 21.25 11.2484C21.4144 11.2484 21.5771 11.2808 21.729 11.3437C21.8808 11.4066 22.0188 11.4988 22.135 11.615L29.635 19.115V19.115Z" fill="#FFC391"/>
</svg>
